<svg id="Capa_1" data-name="Capa 1" xmlns="http://www.w3.org/2000/svg" viewBox="0 0 390.37 39.6"><defs><style>.cls-1{fill:#888852;}.cls-2{fill:#868650;}.cls-3{fill:#86874e;}.cls-4{fill:#898950;}.cls-5{fill:#87874f;}.cls-6{fill:#89884f;}.cls-7{fill:#85854d;}.cls-8{fill:#86864f;}.cls-9{fill:#808146;}.cls-10{fill:#85854e;}.cls-11{fill:#7f8245;}.cls-12{fill:#808049;}.cls-13{fill:#828448;}.cls-14{fill:#808045;}.cls-15{fill:#828346;}.cls-16{fill:#808048;}.cls-17{fill:#7f8146;}.cls-18{fill:#8a8759;}.cls-19{fill:#818246;}.cls-20{fill:#84854d;}.cls-21{fill:#818248;}</style></defs><title>brianpasar</title><path class="cls-1" d="M319.16,59.65c-.26,1.32-.52,2.64-.77,4a12.29,12.29,0,0,0-.15,3.32c.14,1.7.76,2.63,2.76,4a36.09,36.09,0,0,1-6.33,0c2.19-2.61,2.51-6.1,3.24-9.32,1.37-6.1,2.56-12.27,3.84-18.4.34-1.61.72-3.2,1.11-4.79.6-2.42,0-4.15-1.76-5.27a1.33,1.33,0,0,1-.23-.24c.15-.6.55-.33.83-.35.67-.05,1.34,0,2,0,1.68,0,1.65,0,2.09,2.08q2.15,10.19,4.34,20.36c.83,3.86,1.68,7.72,2.52,11.57.39,1.77,1,3.34,2.49,4.1-.76.39-5.29.53-6.72.22,1.3-1.15,1.11-2.71.95-4.3-.25-2.59-1.1-5-1.39-7.56-.23-.77-.76-.55-1.21-.59-1-.08-6.2.16-7.23-.19.08-.34.15-.82.74-.89a47.09,47.09,0,0,1,4.82,0c.59-.09,1.26.25,1.68-.58a6,6,0,0,0-.31-2.35c-1-4.43-1.74-9-2.83-13.28-1.19,4.82-2.07,9.88-3.25,14.82-.35.9-.07,1.47.72,1.69C320.24,57.89,319.25,58.27,319.16,59.65Z" transform="translate(-3.88 -32.01)"/><path class="cls-2" d="M378.43,65.13c0-.8.05-1.61.12-2.4,0-.36.16-.72.51-.79s.55.15.68.52a13.78,13.78,0,0,1,.49,1.54,11.12,11.12,0,0,0,1.95,4.26,4.78,4.78,0,0,0,7.08,1.22,6.22,6.22,0,0,0,2.15-4.39,11.59,11.59,0,0,0-2.53-9c-1.76-2.1-3.79-3.72-5.65-5.62a17,17,0,0,1-4.05-5.9,10.48,10.48,0,0,1,.77-9,7,7,0,0,1,5.51-3.45,9.85,9.85,0,0,1,6.08,1.68,2.14,2.14,0,0,1,1.06,2.15c-.05,1.05,0,2.1,0,3.16,0,.44,0,.91-.45,1s-.59-.34-.69-.74a16.24,16.24,0,0,0-1.51-3.77c-1.3-2.34-3.73-3.29-5.86-2.25s-3.13,3.43-2.91,6.35a10.71,10.71,0,0,0,2.3,6A53.12,53.12,0,0,0,387.91,50a34.54,34.54,0,0,1,4,4.49,12.36,12.36,0,0,1,2.33,8.06c-.22,3.94-1.81,6.66-4.52,8.08-3.54,1.84-6.93.83-10.12-1.62C378.4,68.1,378.34,66.67,378.43,65.13Z" transform="translate(-3.88 -32.01)"/><path class="cls-3" d="M289.94,65.31c-.91-3.64-2-7.19-2.89-10.86A15,15,0,0,0,286,51.23a6.92,6.92,0,0,0-3.15-3c1.88,0,3.39-.07,4.79-1a6.67,6.67,0,0,0,3.21-6.38,14.61,14.61,0,0,1,0-1.48,5.31,5.31,0,0,0-1.47-4A7.71,7.71,0,0,0,284,32.57c-3.1-.12-6.2-.16-9.31,0-.2,0-.49-.11-.54.42,1.33.44,1.73,1.74,1.79,3.34,0,.86.11,1.73.11,2.59q0,13.08,0,26.17a21.32,21.32,0,0,1-.13,2.4,3.64,3.64,0,0,1-1.36,2.69c-.16.12-.49.12-.37.71a27.81,27.81,0,0,0,6.68-.15c-1.66-1.81-1.89-2.42-1.89-5q0-8.34,0-16.7a3.41,3.41,0,0,1,.15-1.69c2.49.89,3.8,3.06,4.54,6,1.17,4.7,2.39,9.38,3.63,14,.88,3.33,3.21,4.62,5.85,3.32C291,68.69,290.64,68.09,289.94,65.31Zm-10.3-19a2,2,0,0,1-.68-1.7c0-1.49,0-3,0-4.46h0c0-1.36,0-2.72,0-4.08,0-1.66.87-2.74,2.15-2.8a6.81,6.81,0,0,1,5.2,2.19,5.65,5.65,0,0,1,1.39,3.35,11,11,0,0,1,0,3.14C287.14,46.68,282.7,49,279.64,46.31Z" transform="translate(-3.88 -32.01)"/><path class="cls-4" d="M244.87,48.16c-.56-.31-1.13-.6-1.69-.89a12,12,0,0,0,4.11-2c3.22-2.44,3.34-8.7.08-11a8.89,8.89,0,0,0-5.18-1.8c-2.72,0-5.44,0-8.16,0a.88.88,0,0,0-1,.47c2,.62,2.14,2.64,2.13,4.74,0,.31,0,.62,0,.93,0,9,0,18,0,27.06,0,2-.19,3.85-1.68,5.13a37.61,37.61,0,0,0,3.78.16,35.84,35.84,0,0,0,5.86-.17c3.64-.51,6.71-3.91,7.42-8.48C251.53,56,249.21,50.5,244.87,48.16Zm-6.78-8.36c0-1.35.07-2.71.15-4.07s.7-2.24,1.67-2.37a5.45,5.45,0,0,1,4.65,1.26c2.5,2.24,2.89,7.09.76,9.88-1.46,1.91-4.66,2.42-6.41,1a2.17,2.17,0,0,1-.79-1.84V39.8Zm7.51,27.75c-1.52,2.37-3.43,3.18-5.74,2.58a2.19,2.19,0,0,1-1.62-2.24c0-.55-.11-1.11-.11-1.66q0-9.27,0-18.54a2.59,2.59,0,0,1,.23-1.25,12.9,12.9,0,0,1,5.52,3c2.56,2.56,3.59,6,3.63,10A14.57,14.57,0,0,1,245.6,67.55Z" transform="translate(-3.88 -32.01)"/><path class="cls-5" d="M312.1,40.83c-1.66-5-4.53-8.31-9.38-8.36-2,0-4,0-6,0-.29,0-.67-.21-.89.46,1.68.57,1.89,2.22,1.92,4.14.12,9.63.15,19.27,0,28.9,0,1.87-.2,3.57-1.65,4.56.17.16.24.28.31.29a38.86,38.86,0,0,0,8.14-.08,7.8,7.8,0,0,0,5.65-4.22,25.64,25.64,0,0,0,3-8.85A35.93,35.93,0,0,0,312.1,40.83ZM309.49,62a14.06,14.06,0,0,1-3.12,6.5,4.25,4.25,0,0,1-3.69,1.61c-1.07-.07-1.66-.78-1.81-2.15a19.77,19.77,0,0,1-.06-2c0-4.82,0-9.64,0-14.46h0c0-5,.06-10,0-15,0-2.23.88-3.37,2.7-3.1a5,5,0,0,1,3.42,2.42,19.54,19.54,0,0,1,2.7,6.67A48,48,0,0,1,309.49,62Z" transform="translate(-3.88 -32.01)"/><path class="cls-6" d="M353.14,40c-1.52-4.23-4.11-6.68-7.55-7.38-2.77-.56-5.6,0-8.47.09,1.8.74,2.05,2.51,2.05,4.47,0,1.42,0,2.84,0,4.26q0,12.26,0,24.5a9.42,9.42,0,0,1-.58,3.4c-.31.79-1,.89-1.67,1.68a82.78,82.78,0,0,0,8.58-.19c2.45-.27,4.34-1.74,5.89-4.06A20.91,20.91,0,0,0,354.25,59,35.56,35.56,0,0,0,353.14,40ZM352,52.51a46.44,46.44,0,0,1-.45,5.9,23.06,23.06,0,0,1-3,8.92c-1.09,1.77-2.47,2.89-4.3,2.84-1.33,0-2.07-.83-2.13-2.57-.08-2-.05-4.08-.05-6.12v-10h.05c0-5,.09-10,0-15-.05-2,1.19-3.25,2.67-3.08,2.42.29,3.83,2.3,4.91,4.81C351.59,42.63,352,47.51,352,52.51Z" transform="translate(-3.88 -32.01)"/><path class="cls-7" d="M270.25,43.39a21.8,21.8,0,0,0-2.7-7.87c-2.68-4.36-6.95-4.57-9.64-1.11-2.26,2.9-3.25,6.52-3.77,10.37a52.75,52.75,0,0,0,0,14.2,24.69,24.69,0,0,0,2.43,8.43c2,3.77,5.08,5,8.26,3.41,1.85-.94,3-2.81,3.8-5A38.42,38.42,0,0,0,271,51.34,34.47,34.47,0,0,0,270.25,43.39ZM266.83,64a16.34,16.34,0,0,1-1.76,4.62c-1.64,2.75-4.39,2.55-5.84-.38a21.69,21.69,0,0,1-1.7-5.66,62.21,62.21,0,0,1-.42-19.12,26.84,26.84,0,0,1,2-8c1.07-2.38,3.4-3.19,4.91-1.73a7.81,7.81,0,0,1,1.9,3.18,38.5,38.5,0,0,1,1.91,11.51c0,1.11,0,2.22,0,3.33A49.86,49.86,0,0,1,266.83,64Z" transform="translate(-3.88 -32.01)"/><path class="cls-8" d="M374.3,41.07c-.81-3.07-1.95-5.9-4.17-7.75a4.94,4.94,0,0,0-6.95.27c-2.25,2.12-3.38,5.16-4.06,8.47a46.36,46.36,0,0,0-1,11,37.82,37.82,0,0,0,2.62,13.71c2.17,5.06,7.68,7.08,11.32,1.23a23,23,0,0,0,2.3-6.12,43.8,43.8,0,0,0,1.11-10.05A37.48,37.48,0,0,0,374.3,41.07ZM371.79,61.8a22.75,22.75,0,0,1-1.91,6.34c-1.51,3.25-4.79,2.9-6.06.2a13.56,13.56,0,0,1-.56-1.29,43.1,43.1,0,0,1-2.18-12.56,59.93,59.93,0,0,1,.66-12.35,26.67,26.67,0,0,1,1.6-6.11c.72-1.75,1.74-3,3.33-3.06s2.55,1.19,3.33,2.73a21,21,0,0,1,1.75,6.23,46.8,46.8,0,0,1,.76,9.83A58.88,58.88,0,0,1,371.79,61.8Z" transform="translate(-3.88 -32.01)"/><path class="cls-9" d="M126.27,46.46q0,9.54,0,19.1c0,.68,0,1.36,0,2,.15,1.93.82,2.83,2.29,2.81a9.13,9.13,0,0,0,7.08-2.85,19.4,19.4,0,0,0,1.37-1.92c0,1.8,0,3.24,0,4.69,0,.51-.23.79-.62.82s-.77,0-1.15,0c-4.25,0-8.49,0-12.74,0-.4,0-.86.2-1.3-.38,1.73-.92,2-2.79,1.94-4.85,0-9.58,0-19.17,0-28.75,0-2.46-.29-3-2.23-4.49h1.47l13.31,0c1.43,0,1.44,0,1.42,1.89a6.12,6.12,0,0,1-.17,2.1c-.71,0-1.18-.73-1.67-1.19-2.22-2-4.74-2.11-7.27-2-.9,0-1.66,1.22-1.7,2.57-.06,2.22-.05,4.45-.05,6.67,0,.87,0,1.73,0,2.6A1.19,1.19,0,0,1,126.27,46.46Z" transform="translate(-3.88 -32.01)"/><path class="cls-10" d="M213.7,46.53q.09,9.82.2,19.64c0,3.84.53,4.44,3.49,4.1a8.93,8.93,0,0,0,5.79-2.8c.45-.47.64-1.21,1.24-1.72a18.6,18.6,0,0,1,.19,4.75.59.59,0,0,1-.45.61,2.94,2.94,0,0,1-.71.09H210.14c-.32,0-.68.1-1-.43,1.43-1.22,1.65-3.1,1.67-5.15.09-9,.05-17.92,0-26.88,0-.25,0-.5,0-.74,0-2.15-.31-4-1.94-5.3h9.54c1.71,0,3.43.05,5.15,0,.72,0,1.08.31,1,1.28a14.43,14.43,0,0,1-.15,2.49c-.48.28-.68-.2-.92-.43-2.4-2.34-5.17-2.68-8-2.56-.78,0-1.35.76-1.52,1.9a13.74,13.74,0,0,0-.1,2c0,2.6,0,5.19-.2,7.78A1.66,1.66,0,0,1,213.7,46.53Z" transform="translate(-3.88 -32.01)"/><path class="cls-11" d="M53.94,32.78h6.83a5.54,5.54,0,0,0-2,4.78c0,9.64,0,19.28,0,28.92q0,.55,0,1.11c.1,1.87.82,2.92,2.27,2.86,2.86-.11,5.64-.63,7.56-3.87a6.29,6.29,0,0,1,.66-.72,23.85,23.85,0,0,1,.16,4.59.57.57,0,0,1-.46.61,5.56,5.56,0,0,1-1,.11l-13,0c-.33,0-.66,0-1.4-.09,1.92-1.07,2-2.93,2.07-4.82.18-9.58,0-19.16.06-28.74,0-2-.36-3.64-2-4.45Z" transform="translate(-3.88 -32.01)"/><path class="cls-12" d="M142.56,51.14a45.07,45.07,0,0,0,1.94,14.13,10.72,10.72,0,0,0,2.81,4.59,2.84,2.84,0,0,0,3.52.61,3.06,3.06,0,0,0,1.52-2.06,16.76,16.76,0,0,0,.17-7.84c-.29-1.51-.19-1.72,1-1.82,1.54-.14,1.87.23,2,2.17a13.81,13.81,0,0,1-1.44,7.75,5,5,0,0,1-5,2.93c-2.72-.18-4.72-2.06-6.36-4.74a21.21,21.21,0,0,1-2.38-6.67,41.5,41.5,0,0,1,.09-17,20.27,20.27,0,0,1,3.15-7.8c2.38-3.33,6.51-4,9.4-1.52a6.19,6.19,0,0,1,1.81,3c.33,1.18.21,1.47-.74,1.93-.17.09-.36.14-.54.22-.68.28-1.12,0-1.27-.93a8.35,8.35,0,0,0-1.06-2.8c-1.62-2.87-4.45-2.76-6,.17a22.14,22.14,0,0,0-2.27,8.68C142.75,46.45,142.56,48.78,142.56,51.14Z" transform="translate(-3.88 -32.01)"/><path class="cls-13" d="M118.51,37.84a9.22,9.22,0,0,0-2.21-3.09,3.64,3.64,0,0,0-2.78-1.23c-1.09,0-2,.91-2,2.5-.18,9.52,0,19-.08,28.57,0,.55.08,1.11.09,1.66,0,2,.31,3.8,1.92,4.84h-6.72c1.64-1.07,1.82-2.86,1.81-4.87,0-10,0-19.92,0-29.87,0-2.19-.88-3.14-2.54-2.75a5.13,5.13,0,0,0-2.81,1.69,17.74,17.74,0,0,0-1.77,2.7,16.16,16.16,0,0,1-.32-4.73.6.6,0,0,1,.52-.52c.34,0,.67,0,1,0h15c1.17,0,1.19,0,1.21,1.55,0,1.15,0,2.3,0,3.45Z" transform="translate(-3.88 -32.01)"/><path class="cls-14" d="M79,71.1c-2.49.22-4.74,0-7,.08,0-.69.34-.62.55-.77a2.68,2.68,0,0,0,1.12-2.21c0-.67.11-1.35.11-2q0-13.44,0-26.88c0-.43,0-.86,0-1.29,0-2-.2-3.92-2.09-5.18a49.26,49.26,0,0,1,7.39,0c-1.86,1.17-2.15,2.94-2.15,4.92q0,14.46,0,28.92c0,.12,0,.25,0,.37C77,69.51,77.19,69.82,79,71.1Z" transform="translate(-3.88 -32.01)"/><path class="cls-15" d="M31,70.92a24.72,24.72,0,0,1-6.87.08c1.55-.83,1.8-2.46,1.8-4.26q0-11.68,0-23.36c0-1.74,0-3.47,0-5.2,0-2.16-.18-4.15-1.81-5.44h6.39c.19.48-.18.47-.31.62A4.91,4.91,0,0,0,29,36.92c0,.8-.1,1.6-.1,2.4q0,12.52,0,25c0,.86.1,1.73.11,2.59C29,68.77,29.39,70.25,31,70.92Z" transform="translate(-3.88 -32.01)"/><path class="cls-16" d="M164.91,35.34a7.59,7.59,0,0,0-2-2.62h3.75c.56,0,.7.5.82,1.06q.75,3.57,1.52,7.14c1.11,5.17,2.25,10.32,3.32,15.5.74,3.64,1.52,7.27,2.45,10.83.61,2.31.68,2.29,2,3.64a13.81,13.81,0,0,1-6,0c1.14-1.5.9-3.19.54-5-.45-2.26-.81-4.56-1.21-6.84a18.2,18.2,0,0,1-1.24-3c-1.06-5.07-2.26-10.09-3.15-15.21A43.43,43.43,0,0,1,164.91,35.34Z" transform="translate(-3.88 -32.01)"/><path class="cls-17" d="M164.91,35.34a1.46,1.46,0,0,1,.33,1.15c0,.95-.11,1.91.65,2.64.37.35.21,1.15.17,1.76-.17.33-.39-.65-.52,0-.95,4.84-2,9.65-3,14.47-.37,1.78-.28,2,1.13,1.74A18,18,0,0,1,167,57a2.64,2.64,0,0,0,2.26-.88,8.1,8.1,0,0,1,.82,3c-.52-.7-1.24-.6-1.88-.62-1.86-.08-3.72-.1-5.58-.09-1.18,0-1.23,0-1.52,1.4-.36,1.72-.67,3.46-1,5.21a7.75,7.75,0,0,0,.69,4.26,2.36,2.36,0,0,0,2.27,1.41c-1.15.7-4.38.81-6.71.35a8.21,8.21,0,0,0,2.36-4.27c.38-1.59.68-3.21,1-4.81.8-3.74,1.63-7.47,2.39-11.23q1.26-6.16,2.71-12.26A11.25,11.25,0,0,0,164.91,35.34Z" transform="translate(-3.88 -32.01)"/><path class="cls-5" d="M126.27,46.46c0-.39,0-.78,0-1.17l8.42.08a8.34,8.34,0,0,1,1,0c.7.1.82.37.51,1.21a9.68,9.68,0,0,1-.66,1.42c-.36.63-.73.82-1.29.19a6,6,0,0,0-5-2.07C128.23,46.19,127.22,45.8,126.27,46.46Z" transform="translate(-3.88 -32.01)"/><path class="cls-18" d="M213.7,46.53c0-.44,0-.89,0-1.33a6.62,6.62,0,0,0,2.83.21c2,0,4.09,0,6.13,0,1.16,0,1.27.33.72,1.58-.07.16-.15.31-.22.47-.69,1.47-.69,1.48-1.76.41a4.67,4.67,0,0,0-2.16-1.34A13.94,13.94,0,0,0,215,46C214.52,46,214,46,213.7,46.53Z" transform="translate(-3.88 -32.01)"/><path class="cls-19" d="M47.19,49.43a15.46,15.46,0,0,0-3.62-2,3.86,3.86,0,0,1,1.58-.54,7.05,7.05,0,0,0,2.57-1.12c2.43-1.63,2.93-4.82,2.53-7.57a4.9,4.9,0,0,0-1.82-3.41,9.37,9.37,0,0,0-5.7-2.12c-2.58.11-5.16,0-7.74.08a1.56,1.56,0,0,0-1.2.24c1.73,1.13,2.19,2.91,2.2,5.13,0,9.65,0,19.3,0,29a4,4,0,0,1-1.89,3.83,6.36,6.36,0,0,0,2.2.32c2,0,4.1,0,6.16,0,4,0,6.73-2.41,8.33-7.19C52.45,59,50.86,52.13,47.19,49.43ZM39,36.63c.15-2.49.81-3.16,2.94-3.17a5.37,5.37,0,0,1,3.24,1.19,5.51,5.51,0,0,1,2.15,4.13,14.13,14.13,0,0,1-.16,3.68,4.4,4.4,0,0,1-1.58,2.74,5,5,0,0,1-5.48.75A1.8,1.8,0,0,1,39,44.21,50.48,50.48,0,0,1,39,36.63Zm9.22,25.2A12.35,12.35,0,0,1,47,66.71c-1.38,2.72-3.33,4-5.81,3.8-1.45-.1-1.9-.73-2.11-2.59-.41-3.75-.11-7.52-.23-11.86,0-2.38,0-5.34,0-8.3,0-1.41.15-1.5,1.17-1.13a11.74,11.74,0,0,1,6.08,4.57C48.14,54.27,48.44,58,48.19,61.83Z" transform="translate(-3.88 -32.01)"/><path class="cls-20" d="M16.76,49.14c-.9-.7-1.92-1-3-1.81l1-.24a9.24,9.24,0,0,0,3.68-1.94c2.36-2,3.21-7.83-.21-10.46a8.67,8.67,0,0,0-5.42-2l-8.31.09c-.21,0-.49-.1-.6.42,1.56.6,2,2.07,2.06,4.09q.19,14.94,0,29.87A4.9,4.9,0,0,1,4.39,71c3.29.1,6.52.63,9.74,0,3.63-.66,6.66-4.49,7.19-9.1C22,56.49,20.23,51.84,16.76,49.14ZM8.9,36.4c.07-2,.86-2.85,2.39-2.87a6.55,6.55,0,0,1,2.81.54c2.08.93,3.46,2.77,3.29,6.12.19,3.6-1.83,6-4.53,6.24a5.23,5.23,0,0,1-3.08-.59,1.7,1.7,0,0,1-.93-1.66C8.87,41.58,8.82,39,8.9,36.4ZM18,63.08A13.35,13.35,0,0,1,16.83,67a5.16,5.16,0,0,1-5.77,3.38c-1.57-.16-2.18-1.1-2.21-3.16,0-3.21,0-6.43,0-9.65h0c0-3.21,0-6.43,0-9.65,0-1.47.07-1.52,1.17-1a14.28,14.28,0,0,1,4.34,2.32A11.55,11.55,0,0,1,18.08,57,28.94,28.94,0,0,1,18,63.08Z" transform="translate(-3.88 -32.01)"/><path class="cls-21" d="M204.28,40.07c-1.53-4.2-4.08-6.75-7.56-7.25-2.72-.4-5.5-.08-8.26-.08l-.1.35c1.54.67,2.12,2,2.11,4.08q0,14.56,0,29.14c0,2-.33,3.64-1.85,4.48.15.37.35.39.53.39,2.34,0,4.68.06,7,0a7.3,7.3,0,0,0,4.62-2.26c3.17-3,4.48-7.29,5.1-12A35,35,0,0,0,204.28,40.07Zm-2.56,23.5a10.79,10.79,0,0,1-4.23,6.27,3.55,3.55,0,0,1-2.34.65c-1.2-.12-1.7-.78-1.77-2.35,0-1.17,0-2.35,0-3.52,0-4.21,0-8.41,0-12.62h0c0-5.07.08-10.15,0-15.22-.06-3.05,1.64-3.61,3.19-3.21,2.11.53,3.37,2.49,4.38,4.68a26.94,26.94,0,0,1,2.26,8.91A42.68,42.68,0,0,1,201.72,63.57Z" transform="translate(-3.88 -32.01)"/><path class="cls-17" d="M98.21,41.67a15.86,15.86,0,0,0-3.89-7.79,5.34,5.34,0,0,0-8.22.76,22.51,22.51,0,0,0-3.4,9,40.5,40.5,0,0,0-.63,8.13,39.6,39.6,0,0,0,1.58,12.31,13.4,13.4,0,0,0,2.69,5.37,5.23,5.23,0,0,0,7.79.69A12.22,12.22,0,0,0,96.7,66.5,26.66,26.66,0,0,0,99,57.44,43.73,43.73,0,0,0,98.21,41.67ZM95.54,62.75a17.69,17.69,0,0,1-2.2,6.36c-1.13,1.94-4.56,2-5.52-.22a21,21,0,0,1-1.41-3.61,58.24,58.24,0,0,1-1.5-13.34,63.5,63.5,0,0,1,1.28-13,13,13,0,0,1,1.75-4.2c1.45-2.33,4-2.26,5.34.16a18.34,18.34,0,0,1,2.4,7.42c.25,2.51.51,5,.69,7.55A59.06,59.06,0,0,1,95.54,62.75Z" transform="translate(-3.88 -32.01)"/></svg>